# xmcd
#
# Track frame offsets:
#	150
#	16975
#	28015
#	49282
#	66595
#	75630
#	91112
#	93847
#	108467
#	127165
#	139650
#	156617
#	173805
#	186542
#	201977
#	209400
#	218890
#	232345
#	249382
#	260222
#	270847
#	279795
#	306617
#	321097
#
# Disc length: 4468 seconds
#
# Revision: 1
# Processed by: cddbd v1.5.2PL0 Copyright (c) Steve Scherf et al.
# Submitted via: audiograbber 1.83.01
#
DISCID=73117218
DTITLE=Area Code 615 - Area Code 615 - Trip In The Country
DYEAR=1969
DGENRE=Oldies
TTITLE0=Southern Comfort
TTITLE1=I've Been Loving You Too Long
TTITLE2=Hey Jude
TTITLE3=Nashville 9 - N.Y. 1
TTITLE4=Lady Madonna
TTITLE5=Ruby
TTITLE6=Medley- Crazy Arms - Get Back
TTITLE7=Why Ask Why
TTITLE8=Lil' Maggie
TTITLE9=Classical Gas
TTITLE10=Just Like A Woman
TTITLE11=Scotland
TTITLE12=Always The Same
TTITLE13=Stone Fox Chase
TTITLE14=Russian Red
TTITLE15=Judy
TTITLE16=Gray Suit Men
TTITLE17=Katy Hill
TTITLE18=Sligo
TTITLE19=Sausilito
TTITLE20=Welephant Alk
TTITLE21=Devil Weed And Me
TTITLE22=John Henry
TTITLE23=Tennessee Green
EXTD=
EXTT0=
EXTT1=
EXTT2=
EXTT3=
EXTT4=
EXTT5=
EXTT6=
EXTT7=
EXTT8=
EXTT9=
EXTT10=
EXTT11=
EXTT12=
EXTT13=
EXTT14=
EXTT15=
EXTT16=
EXTT17=
EXTT18=
EXTT19=
EXTT20=
EXTT21=
EXTT22=
EXTT23=
PLAYORDER=
